<mxfile host="app.diagrams.net" modified="2023-07-06T22:16:36.318Z" agent="Mozilla/5.0 (Windows NT 10.0; Win64; x64) AppleWebKit/537.36 (KHTML, like Gecko) Chrome/114.0.0.0 Safari/537.36" etag="qqMX9ksQAVw0kHM0ecsP" version="21.6.1" type="device">
  <diagram name="Page-1" id="whPgAOhpoDf_ZaRianhP">
    <mxGraphModel dx="1434" dy="796" grid="1" gridSize="10" guides="1" tooltips="1" connect="1" arrows="1" fold="1" page="1" pageScale="1" pageWidth="827" pageHeight="1169" math="0" shadow="0">
      <root>
        <mxCell id="0" />
        <mxCell id="1" parent="0" />
        <mxCell id="K1tvt96dej5BP8VI5rpn-2" value="&lt;div style=&quot;line-height: 120%;&quot;&gt;Websocket Data Flow About Couriers&lt;br&gt;&lt;/div&gt;" style="shape=cylinder3;whiteSpace=wrap;html=1;boundedLbl=1;backgroundOutline=1;size=15;rotation=90;align=center;" vertex="1" parent="1">
          <mxGeometry x="100" y="110" width="60" height="190" as="geometry" />
        </mxCell>
        <mxCell id="K1tvt96dej5BP8VI5rpn-4" value="Spring boot backend" style="rounded=0;whiteSpace=wrap;html=1;" vertex="1" parent="1">
          <mxGeometry x="400" y="135" width="210" height="165" as="geometry" />
        </mxCell>
        <mxCell id="K1tvt96dej5BP8VI5rpn-5" value="" style="shape=flexArrow;endArrow=classic;html=1;rounded=0;exitX=0.633;exitY=0.005;exitDx=0;exitDy=0;exitPerimeter=0;" edge="1" parent="1" source="K1tvt96dej5BP8VI5rpn-2" target="K1tvt96dej5BP8VI5rpn-4">
          <mxGeometry width="50" height="50" relative="1" as="geometry">
            <mxPoint x="210" y="330" as="sourcePoint" />
            <mxPoint x="260" y="280" as="targetPoint" />
          </mxGeometry>
        </mxCell>
        <mxCell id="K1tvt96dej5BP8VI5rpn-7" value="Console Logs" style="ellipse;whiteSpace=wrap;html=1;" vertex="1" parent="1">
          <mxGeometry x="640" y="20" width="120" height="80" as="geometry" />
        </mxCell>
        <mxCell id="K1tvt96dej5BP8VI5rpn-9" value="" style="shape=flexArrow;endArrow=classic;html=1;rounded=0;exitX=0.676;exitY=0.012;exitDx=0;exitDy=0;exitPerimeter=0;entryX=0.008;entryY=0.425;entryDx=0;entryDy=0;entryPerimeter=0;" edge="1" parent="1" source="K1tvt96dej5BP8VI5rpn-4" target="K1tvt96dej5BP8VI5rpn-7">
          <mxGeometry width="50" height="50" relative="1" as="geometry">
            <mxPoint x="490" y="85" as="sourcePoint" />
            <mxPoint x="540" y="35" as="targetPoint" />
            <Array as="points">
              <mxPoint x="550" y="60" />
            </Array>
          </mxGeometry>
        </mxCell>
        <mxCell id="K1tvt96dej5BP8VI5rpn-10" value="Http Endpoints&lt;br&gt;&lt;br&gt;/courier/distance/{id}" style="ellipse;whiteSpace=wrap;html=1;" vertex="1" parent="1">
          <mxGeometry x="450" y="390" width="120" height="80" as="geometry" />
        </mxCell>
        <mxCell id="K1tvt96dej5BP8VI5rpn-11" value="" style="shape=flexArrow;endArrow=classic;html=1;rounded=0;exitX=0.533;exitY=1.024;exitDx=0;exitDy=0;exitPerimeter=0;entryX=0.5;entryY=0;entryDx=0;entryDy=0;" edge="1" parent="1" source="K1tvt96dej5BP8VI5rpn-4" target="K1tvt96dej5BP8VI5rpn-10">
          <mxGeometry width="50" height="50" relative="1" as="geometry">
            <mxPoint x="210" y="370" as="sourcePoint" />
            <mxPoint x="260" y="320" as="targetPoint" />
          </mxGeometry>
        </mxCell>
      </root>
    </mxGraphModel>
  </diagram>
</mxfile>
